<svg width="200" height="200" viewBox="0 0 200 200" fill="none" xmlns="http://www.w3.org/2000/svg">
<path d="M175 25H25C16.6667 25 8.33337 33.3333 8.33337 41.6667V158.333C8.33337 167.5 15.8334 175 25 175H175C183.333 175 191.667 166.667 191.667 158.333V41.6667C191.667 33.3333 183.333 25 175 25ZM175 157.667C174.833 157.917 174.5 158.167 174.333 158.333H25V42.3333L25.6667 41.6667H174.25C174.5 41.8333 174.75 42.1667 174.917 42.3333V157.667H175ZM91.6667 129.25L70.8334 104.167L41.6667 141.667H158.333L120.833 91.6667L91.6667 129.25Z" fill="#3B3B3B"/>
</svg>
